<?xml version="1.0" encoding="UTF-8"?>
<svg width="512" height="512" viewBox="0 0 512 512" xmlns="http://www.w3.org/2000/svg">
  <defs>
    <linearGradient id="waveGradient" x1="0%" y1="0%" x2="100%" y2="100%">
      <stop offset="0%" style="stop-color:#FFD700"/>
      <stop offset="50%" style="stop-color:#FF4500"/>
      <stop offset="100%" style="stop-color:#FF8C00"/>
    </linearGradient>
  </defs>
  
  <!-- Círculo blanco de fondo -->
  <circle cx="256" cy="256" r="250" fill="white"/>
  
  <!-- Ondas con degradado -->
  <path d="M 106,206 
           C 156,156 356,156 406,206
           C 356,256 156,256 106,206
           M 106,256
           C 156,206 356,206 406,256
           C 356,306 156,306 106,256
           M 106,306
           C 156,256 356,256 406,306
           C 356,356 156,356 106,306"
        fill="url(#waveGradient)"/>
  
  <!-- Cubiertos -->
  <g transform="translate(256,256) scale(0.8) translate(-256,-256)" fill="white">
    <!-- Tenedor -->
    <path d="M220,180 L240,200 L220,220 L200,200 Z"/>
    <!-- Cuchillo -->
    <path d="M270,180 L290,220 L270,220 L250,180 Z"/>
  </g>
  
  <!-- Texto "BIZANTINO" -->
  <text x="256" y="150" 
        font-family="Arial Black, sans-serif" 
        font-size="60" 
        text-anchor="middle" 
        fill="#1A1A1A"
        font-weight="bold">
    BIZANTINO
  </text>
  
  <!-- Texto "RESTAURANTE & PARRILLA" -->
  <text x="256" y="390" 
        font-family="Arial, sans-serif" 
        font-size="24" 
        text-anchor="middle" 
        fill="#1A1A1A">
    RESTAURANTE & PARRILLA
  </text>
</svg> 